<svg id="Layer_1" data-name="Layer 1" xmlns="http://www.w3.org/2000/svg" viewBox="0 0 91.22 49.93"><defs><style>.cls-1{fill:#574fc1;}.cls-2{opacity:0.38;}.cls-3{fill:#4045bf;}</style></defs><title>Artboard 3dbp2020</title><path class="cls-1" d="M18,35.49a10,10,0,1,1,10-10A10,10,0,0,1,18,35.49Z"/><path d="M18,15.68a9.78,9.78,0,1,1-9.78,9.78A9.79,9.79,0,0,1,18,15.68m0-.5A10.28,10.28,0,1,0,28.32,25.46,10.28,10.28,0,0,0,18,15.18Z"/><g class="cls-2"><path class="cls-3" d="M18,32.67A10.27,10.27,0,0,1,7.88,23.93a9.67,9.67,0,0,0-.12,1.53,10.28,10.28,0,0,0,20.56,0,9.67,9.67,0,0,0-.12-1.53A10.27,10.27,0,0,1,18,32.67Z"/></g><circle class="cls-1" cx="71.88" cy="25.46" r="10.03"/><path d="M71.88,15.68a9.78,9.78,0,1,1-9.78,9.78,9.79,9.79,0,0,1,9.78-9.78m0-.5A10.28,10.28,0,1,0,82.16,25.46,10.28,10.28,0,0,0,71.88,15.18Z"/><g class="cls-2"><path class="cls-3" d="M71.88,32.67a10.27,10.27,0,0,1-10.16-8.74,9.67,9.67,0,0,0-.12,1.53,10.28,10.28,0,0,0,20.56,0A9.67,9.67,0,0,0,82,23.93,10.27,10.27,0,0,1,71.88,32.67Z"/></g><circle class="cls-1" cx="45.01" cy="25.46" r="10.03"/><path d="M45,15.68a9.78,9.78,0,1,1-9.78,9.78A9.79,9.79,0,0,1,45,15.68m0-.5A10.28,10.28,0,1,0,55.29,25.46,10.28,10.28,0,0,0,45,15.18Z"/><g class="cls-2"><path class="cls-3" d="M45,32.67a10.27,10.27,0,0,1-10.16-8.74,9.67,9.67,0,0,0-.12,1.53,10.28,10.28,0,0,0,20.56,0,9.67,9.67,0,0,0-.12-1.53A10.27,10.27,0,0,1,45,32.67Z"/></g><rect class="cls-1" x="29.57" y="4.29" width="3.96" height="31.11" rx="1.71"/><path d="M31.81,4.49A1.52,1.52,0,0,1,33.32,6V33.69a1.52,1.52,0,0,1-1.51,1.51h-.53a1.52,1.52,0,0,1-1.51-1.51V6a1.52,1.52,0,0,1,1.51-1.51h.53m0-.4h-.53A1.91,1.91,0,0,0,29.36,6V33.69a1.92,1.92,0,0,0,1.92,1.92h.53a1.92,1.92,0,0,0,1.92-1.92V6a1.91,1.91,0,0,0-1.92-1.91Z"/><g class="cls-2"><path class="cls-3" d="M33.58,5.4V31.52a2,2,0,0,1-2,1.93h0a2,2,0,0,1-2-1.93V5.4a2.14,2.14,0,0,0-.15.76V33.54a2.13,2.13,0,0,0,2.18,2.07h0a2.13,2.13,0,0,0,2.19-2.07V6.16A2.14,2.14,0,0,0,33.58,5.4Z"/></g><rect class="cls-1" x="56.47" y="15.01" width="3.96" height="31.09" rx="1.71"/><path d="M58.71,15.22a1.51,1.51,0,0,1,1.51,1.51V44.39a1.52,1.52,0,0,1-1.51,1.51h-.53a1.52,1.52,0,0,1-1.51-1.51V16.73a1.51,1.51,0,0,1,1.51-1.51h.53m0-.41h-.53a1.92,1.92,0,0,0-1.92,1.92V44.39a1.92,1.92,0,0,0,1.92,1.92h.53a1.92,1.92,0,0,0,1.92-1.92V16.73a1.92,1.92,0,0,0-1.92-1.92Z"/><g class="cls-2"><path class="cls-3" d="M60.48,16.12v26.1a2,2,0,0,1-2,1.93h0a2,2,0,0,1-2-1.93V16.12a2.14,2.14,0,0,0-.15.76V44.24a2.13,2.13,0,0,0,2.18,2.07h0a2.13,2.13,0,0,0,2.19-2.07V16.88A2.14,2.14,0,0,0,60.48,16.12Z"/></g></svg>